<svg xmlns="http://www.w3.org/2000/svg" xmlns:xlink="http://www.w3.org/1999/xlink" width="259" zoomAndPan="magnify" viewBox="0 0 375 374.999991" height="185" preserveAspectRatio="xMidYMid meet" version="1.0"><defs><g/><clipPath id="3e6735b723"><path d="M 86.144531 74.921875 L 288.644531 74.921875 L 288.644531 249.671875 L 86.144531 249.671875 Z M 86.144531 74.921875 " clip-rule="nonzero"/></clipPath><clipPath id="1652ac958a"><path d="M 116.210938 123.855469 L 215 123.855469 L 215 252 L 116.210938 252 Z M 116.210938 123.855469 " clip-rule="nonzero"/></clipPath><clipPath id="36c2e21d2e"><path d="M 194 165 L 248.210938 165 L 248.210938 252 L 194 252 Z M 194 165 " clip-rule="nonzero"/></clipPath><clipPath id="d074c3ccde"><path d="M 235.125 93.441406 L 260.625 93.441406 L 260.625 151.191406 L 235.125 151.191406 Z M 235.125 93.441406 " clip-rule="nonzero"/></clipPath></defs><g clip-path="url(#3e6735b723)"><path fill="#fc4c35" d="M 187.5 74.921875 C 186.269531 74.921875 185.089844 75.160156 183.953125 75.632812 C 182.820312 76.105469 181.820312 76.78125 180.957031 77.65625 L 88.148438 158.636719 C 87.5625 159.070312 87.105469 159.613281 86.773438 160.265625 C 86.445312 160.917969 86.28125 161.609375 86.28125 162.339844 C 86.28125 162.640625 86.308594 162.941406 86.371094 163.238281 C 86.429688 163.53125 86.515625 163.820312 86.632812 164.097656 C 86.746094 164.378906 86.886719 164.644531 87.054688 164.894531 C 87.222656 165.144531 87.414062 165.378906 87.628906 165.59375 C 87.84375 165.804688 88.074219 165.996094 88.324219 166.164062 C 88.578125 166.332031 88.84375 166.472656 89.121094 166.589844 C 89.398438 166.707031 89.6875 166.792969 89.984375 166.851562 C 90.28125 166.910156 90.578125 166.941406 90.882812 166.941406 L 113.886719 166.941406 L 113.886719 240.554688 C 113.886719 245.632812 118.007812 249.753906 123.085938 249.753906 L 159.894531 249.753906 C 164.972656 249.753906 169.097656 245.632812 169.097656 240.554688 L 169.097656 185.34375 L 205.902344 185.34375 L 205.902344 240.554688 C 205.902344 245.632812 210.023438 249.753906 215.105469 249.753906 L 251.910156 249.753906 C 256.992188 249.753906 261.113281 245.632812 261.113281 240.554688 L 261.113281 166.941406 L 284.117188 166.941406 C 284.417969 166.941406 284.71875 166.910156 285.015625 166.851562 C 285.3125 166.792969 285.597656 166.707031 285.878906 166.589844 C 286.15625 166.472656 286.421875 166.332031 286.671875 166.164062 C 286.925781 165.996094 287.15625 165.804688 287.371094 165.59375 C 287.585938 165.378906 287.773438 165.144531 287.941406 164.894531 C 288.109375 164.644531 288.253906 164.378906 288.367188 164.097656 C 288.484375 163.820312 288.570312 163.53125 288.628906 163.238281 C 288.6875 162.941406 288.71875 162.640625 288.71875 162.339844 C 288.71875 161.609375 288.554688 160.917969 288.222656 160.265625 C 287.894531 159.613281 287.4375 159.070312 286.847656 158.636719 L 194.09375 77.707031 C 194.078125 77.691406 194.058594 77.671875 194.042969 77.65625 C 193.175781 76.78125 192.179688 76.105469 191.042969 75.632812 C 189.910156 75.160156 188.726562 74.921875 187.5 74.921875 Z M 187.5 74.921875 " fill-opacity="1" fill-rule="nonzero"/></g><g clip-path="url(#1652ac958a)"><path fill="#4a4a4a" d="M 127.230469 251.875 C 125.769531 251.875 124.347656 251.835938 122.996094 251.757812 C 121.332031 251.667969 119.558594 251.484375 117.898438 250.796875 C 116.792969 250.339844 116.21875 249.511719 116.363281 248.578125 C 116.464844 247.9375 116.898438 247.527344 117.0625 247.371094 C 119.714844 244.859375 124.015625 243.164062 127.871094 241.835938 C 131.832031 240.472656 135.992188 239.539062 140.242188 239.0625 C 141.960938 238.867188 143.757812 238.769531 145.589844 238.769531 C 150.535156 238.769531 155.808594 239.445312 162.148438 240.894531 C 162.136719 240.875 162.125 240.855469 162.113281 240.835938 C 160.875 238.773438 159.359375 236.808594 157.890625 234.90625 C 154.992188 231.144531 151.992188 227.253906 150.753906 222.25 C 149.964844 219.066406 150.378906 216.046875 151.925781 213.742188 C 153.226562 211.808594 155.226562 210.558594 157.566406 210.214844 C 158.035156 210.148438 158.503906 210.113281 158.96875 210.113281 C 160.394531 210.113281 161.789062 210.429688 163.121094 211.050781 C 162.753906 208.734375 161.804688 201.863281 161.933594 193.039062 C 162.101562 181.59375 164.46875 175.300781 167.308594 168.824219 C 168.113281 166.953125 168.578125 164.765625 168.726562 162.144531 C 168.746094 161.84375 168.773438 161.503906 168.804688 161.148438 C 168.894531 160.144531 169.015625 158.777344 168.800781 157.789062 C 168.089844 159.683594 167.066406 161.332031 165.542969 163.097656 C 165.515625 163.132812 165.453125 163.21875 165.371094 163.328125 C 163.875 165.3125 162.863281 166.390625 161.78125 166.390625 C 161.550781 166.390625 161.332031 166.339844 161.125 166.246094 C 159.800781 165.632812 160.070312 164.007812 160.285156 162.703125 C 160.351562 162.296875 160.429688 161.832031 160.425781 161.582031 C 160.410156 160.632812 159.5625 158.300781 159.050781 156.90625 C 158.742188 156.054688 157.933594 154.933594 157.078125 153.746094 C 156.125 152.421875 155.039062 150.917969 154.3125 149.332031 C 152.804688 146.03125 154.746094 142.351562 157.445312 140.417969 C 159.398438 139.023438 162.144531 136.261719 163.09375 134.738281 C 163.351562 134.324219 163.632812 133.757812 163.929688 133.15625 C 164.824219 131.347656 166.050781 128.871094 168.289062 127.273438 C 169.347656 126.519531 170.691406 126.140625 172.277344 126.140625 C 173.9375 126.140625 175.5 126.550781 176.433594 126.796875 C 176.585938 126.835938 176.765625 126.886719 176.882812 126.914062 C 177.054688 126.84375 177.386719 126.65625 177.660156 126.503906 C 178.617188 125.972656 180.066406 125.164062 182.359375 124.472656 C 183.542969 124.113281 184.84375 123.929688 186.230469 123.929688 C 188.390625 123.929688 190.125 124.375 190.589844 124.503906 C 191.324219 124.597656 195.007812 125.179688 197.914062 127.671875 C 199.703125 129.207031 200.675781 130.515625 201.320312 131.378906 C 201.492188 131.609375 201.695312 131.882812 201.820312 132.023438 C 201.964844 132.039062 202.175781 132.054688 202.359375 132.070312 C 204.226562 132.210938 208.109375 132.511719 209.730469 135.320312 C 211.0625 137.628906 211.015625 140.527344 210.980469 142.644531 C 210.96875 143.40625 210.957031 144.125 211.015625 144.625 C 211.214844 146.375 212.511719 149.957031 213.675781 151.988281 C 215.300781 154.816406 215.480469 158.9375 212.679688 161.34375 C 211.429688 162.414062 209.910156 163.316406 208.441406 164.191406 C 205.585938 165.886719 202.890625 167.492188 201.917969 170.222656 C 201.886719 170.316406 201.84375 170.464844 201.796875 170.640625 C 201.488281 171.765625 201.046875 173.363281 199.984375 173.890625 C 201.828125 178.886719 203.160156 184.546875 203.285156 193.039062 C 203.40625 201.332031 202.546875 208.097656 202.085938 211.058594 C 203.1875 210.539062 204.601562 210.113281 206.25 210.113281 C 206.714844 210.113281 207.1875 210.148438 207.652344 210.214844 C 211.679688 210.804688 213.386719 213.039062 214.105469 214.808594 C 216.511719 220.738281 211.800781 229.9375 209.28125 233.226562 C 208.417969 234.351562 207.496094 235.445312 206.605469 236.5 C 205.847656 237.398438 205.058594 238.328125 204.328125 239.261719 C 204.265625 239.351562 203.980469 239.8125 203.753906 240.183594 C 203.59375 240.445312 203.445312 240.6875 203.308594 240.914062 L 204.160156 240.824219 C 204.4375 240.765625 205.296875 240.59375 206.136719 240.59375 C 206.878906 240.59375 207.453125 240.726562 207.886719 241.003906 C 208.464844 241.371094 208.847656 241.804688 209.097656 242.089844 C 209.140625 242.136719 209.191406 242.191406 209.226562 242.234375 C 210.191406 242.703125 211.621094 244.242188 211.105469 246.195312 C 210.652344 247.917969 208.617188 248.402344 207.398438 248.695312 C 207.34375 248.707031 207.277344 248.722656 207.214844 248.738281 C 206.507812 249.53125 204.53125 249.90625 199.242188 250.148438 C 194.933594 250.339844 189.175781 250.382812 183.589844 250.398438 C 182.179688 250.402344 180.769531 250.414062 179.375 250.421875 C 177.476562 250.429688 175.609375 250.441406 173.816406 250.441406 C 169.566406 250.441406 164.824219 250.386719 161.839844 249.972656 C 160.890625 249.949219 159.933594 249.9375 158.996094 249.9375 C 158.078125 249.9375 157.152344 249.949219 156.246094 249.972656 C 151.847656 250.082031 147.339844 250.5 142.984375 250.902344 C 137.828125 251.378906 132.496094 251.875 127.230469 251.875 " fill-opacity="1" fill-rule="nonzero"/></g><path fill="#ffffff" d="M 207.46875 211.457031 C 204.816406 211.070312 202.714844 212.019531 201.460938 212.839844 C 200.992188 213.148438 200.527344 212.75 200.625 212.203125 C 201.195312 209.039062 202.15625 201.71875 202.03125 193.054688 C 201.859375 181.433594 199.3125 175.140625 196.761719 169.328125 C 196.214844 168.089844 195.851562 166.773438 195.601562 165.445312 C 195.433594 164.554688 194.832031 162.65625 195.40625 161.851562 C 195.808594 161.292969 196.804688 161.242188 197.414062 161.023438 C 197.039062 163.832031 196.894531 166.292969 197.679688 169.070312 C 197.777344 169.425781 198.832031 172.742188 199.121094 172.800781 C 200.023438 172.992188 200.519531 170.410156 200.734375 169.804688 C 202.417969 165.070312 208.347656 163.40625 211.859375 160.390625 C 214.347656 158.257812 213.773438 154.671875 212.589844 152.613281 C 211.40625 150.554688 210 146.796875 209.765625 144.765625 C 209.53125 142.738281 210.265625 138.757812 208.644531 135.949219 C 207.023438 133.140625 202.085938 133.445312 201.355469 133.214844 C 200.625 132.980469 200.007812 131.121094 197.097656 128.625 C 194.183594 126.125 190.339844 125.738281 190.339844 125.738281 C 190.339844 125.738281 186.460938 124.539062 182.722656 125.671875 C 178.988281 126.804688 177.613281 128.257812 176.847656 128.183594 C 176.082031 128.109375 171.71875 126.375 169.019531 128.296875 C 166.320312 130.21875 165.253906 133.644531 164.160156 135.402344 C 163.066406 137.160156 160.148438 140.027344 158.175781 141.441406 C 156.203125 142.851562 154.121094 145.890625 155.453125 148.808594 C 156.792969 151.722656 159.480469 154.425781 160.230469 156.476562 C 160.980469 158.53125 161.664062 160.488281 161.679688 161.5625 C 161.695312 162.640625 160.960938 164.785156 161.65625 165.109375 C 162.359375 165.433594 164.347656 162.5625 164.59375 162.28125 C 166.5625 159.996094 167.640625 157.945312 168.292969 155.078125 C 168.238281 155.320312 169.046875 155.746094 169.199219 155.894531 C 170.660156 157.3125 170.085938 160.382812 169.980469 162.21875 C 169.839844 164.652344 169.421875 167.078125 168.457031 169.328125 C 165.910156 175.140625 163.359375 181.433594 163.191406 193.054688 C 163.074219 200.84375 163.816406 207.539062 164.40625 211.117188 C 164.5625 212.050781 163.726562 212.761719 162.882812 212.332031 C 161.617188 211.683594 159.855469 211.148438 157.75 211.457031 C 153.328125 212.101562 150.609375 216.460938 151.96875 221.949219 C 153.765625 229.191406 159.476562 234.019531 163.191406 240.1875 C 164.550781 242.449219 164.0625 242.449219 164.0625 242.449219 L 162.273438 242.210938 C 155.128906 240.554688 147.699219 239.488281 140.378906 240.308594 C 136.253906 240.769531 132.1875 241.675781 128.28125 243.019531 C 124.9375 244.171875 120.492188 245.851562 117.921875 248.285156 C 117.777344 248.421875 117.632812 248.578125 117.605469 248.773438 C 117.539062 249.175781 117.980469 249.472656 118.375 249.636719 C 119.84375 250.246094 121.46875 250.417969 123.066406 250.503906 C 134.097656 251.125 145.191406 248.992188 156.214844 248.714844 C 158.117188 248.671875 160.03125 248.671875 161.941406 248.71875 C 166.394531 249.351562 175.074219 249.167969 183.585938 249.144531 C 195.027344 249.113281 206.167969 248.96875 206.324219 247.753906 C 206.363281 247.453125 209.511719 247.328125 209.894531 245.878906 C 210.273438 244.425781 208.9375 243.457031 208.617188 243.335938 C 208.300781 243.214844 207.980469 242.546875 207.214844 242.066406 C 206.449219 241.578125 204.363281 242.066406 204.363281 242.066406 L 200.675781 242.449219 C 201.019531 242.410156 203.054688 238.851562 203.339844 238.488281 C 204.945312 236.441406 206.703125 234.523438 208.285156 232.460938 C 212.140625 227.433594 218.199219 213.023438 207.46875 211.457031 " fill-opacity="1" fill-rule="nonzero"/><g clip-path="url(#36c2e21d2e)"><path fill="#4a4a4a" d="M 224.265625 251.875 C 222.160156 251.875 220.085938 251.546875 218.085938 251.234375 C 217.714844 251.175781 217.34375 251.117188 216.964844 251.058594 C 216.4375 250.980469 215.902344 250.902344 215.359375 250.832031 C 214.625 250.742188 213.785156 250.699219 212.714844 250.699219 C 212.101562 250.699219 211.480469 250.710938 210.855469 250.722656 C 210.21875 250.738281 209.558594 250.753906 208.90625 250.753906 C 206.644531 250.753906 204.015625 250.589844 201.699219 249.378906 C 193.523438 245.105469 192.6875 230.5 195.722656 222.71875 C 195.972656 222.078125 196.199219 221.492188 196.417969 220.941406 C 197.394531 218.449219 198.101562 216.652344 199.140625 213.558594 C 199.425781 212.71875 199.671875 211.828125 199.933594 210.886719 C 200.40625 209.195312 200.894531 207.445312 201.628906 205.875 C 202.03125 205.019531 202.015625 204.082031 201.984375 202.527344 C 201.972656 201.777344 201.957031 200.921875 201.984375 199.898438 C 202.011719 199 202.109375 198.296875 202.1875 197.730469 C 202.28125 197.054688 202.34375 196.605469 202.253906 196.148438 C 202.199219 195.851562 201.976562 195.402344 201.714844 194.878906 C 201.507812 194.46875 201.277344 194.003906 201.042969 193.453125 C 199.960938 190.914062 199.972656 189.476562 199.980469 188.425781 C 199.984375 188.039062 199.988281 187.734375 199.929688 187.460938 C 199.824219 186.976562 199.453125 186.453125 199.0625 185.894531 C 198.828125 185.566406 198.585938 185.222656 198.378906 184.855469 C 197.746094 183.746094 197.28125 182.878906 196.867188 182.050781 L 196.765625 181.855469 C 195.449219 179.265625 194.425781 176.683594 195.84375 175.359375 C 196.363281 174.875 197.011719 174.617188 197.71875 174.617188 C 199.050781 174.617188 200.34375 175.507812 201.59375 176.371094 C 202.359375 176.898438 203.402344 177.621094 203.882812 177.621094 C 204.144531 177.5625 204.445312 177.347656 204.761719 177.117188 L 204.824219 177.074219 C 206.171875 176.101562 207.382812 175.472656 208.644531 175.089844 C 208.785156 175.046875 208.929688 175.007812 209.074219 174.96875 C 209.859375 174.753906 210.105469 174.652344 210.230469 174.371094 C 210.332031 174.136719 210.375 173.796875 210.421875 173.4375 C 210.476562 173 210.519531 172.558594 210.5625 172.09375 C 210.667969 170.960938 210.777344 169.792969 211.105469 168.628906 C 211.488281 167.289062 212.414062 165.046875 214.355469 165.046875 C 214.515625 165.046875 214.683594 165.0625 214.847656 165.097656 C 215.941406 165.335938 216.636719 166.289062 217.148438 166.980469 C 217.214844 167.074219 217.28125 167.160156 217.339844 167.242188 C 217.964844 168.054688 218.519531 169.011719 219.03125 170.164062 C 219.558594 171.351562 219.914062 172.566406 220.253906 173.746094 C 220.484375 174.53125 220.703125 175.273438 220.964844 176.007812 C 221.34375 177.0625 221.839844 178.097656 222.316406 179.097656 C 223.519531 181.621094 224.761719 184.222656 224.453125 187.539062 C 224.375 188.378906 224.140625 189.164062 223.917969 189.921875 C 223.453125 191.492188 223.222656 192.429688 223.875 193.335938 C 226.078125 196.390625 226.984375 199.074219 227.007812 202.601562 C 227.023438 204.75 227.425781 206.144531 228.441406 207.566406 C 229.425781 208.949219 230.183594 210.480469 230.699219 212.125 C 231.1875 213.699219 231.835938 215.023438 232.519531 216.425781 C 233.003906 217.417969 233.503906 218.441406 233.96875 219.59375 C 235.320312 222.957031 235.898438 226.816406 235.640625 230.757812 C 235.625 230.996094 235.617188 231.359375 235.601562 231.796875 C 235.601562 231.90625 235.597656 232.015625 235.59375 232.121094 C 236.042969 230.3125 236.238281 228.398438 236.25 226.75 C 236.257812 225.101562 236.121094 223.4375 235.988281 221.824219 C 235.722656 218.59375 235.449219 215.257812 236.296875 211.765625 C 236.855469 209.464844 237.847656 207.398438 239.167969 205.792969 C 240.242188 204.488281 242.34375 202.273438 244.328125 202.152344 C 244.394531 202.148438 244.457031 202.144531 244.523438 202.144531 C 246.0625 202.144531 247.546875 203.261719 247.976562 204.734375 C 248.238281 205.632812 248.085938 206.675781 247.554688 207.601562 C 247 208.570312 246.367188 209.355469 245.757812 210.113281 C 244.789062 211.316406 243.953125 212.359375 243.566406 213.9375 C 242.757812 217.21875 243.199219 220.394531 243.671875 223.753906 C 244.066406 226.585938 244.476562 229.511719 244.097656 232.550781 C 243.441406 237.828125 242.148438 242.144531 237.988281 246.0625 C 234.949219 248.921875 231.703125 250.695312 228.066406 251.480469 C 226.847656 251.746094 225.605469 251.875 224.265625 251.875 " fill-opacity="1" fill-rule="nonzero"/></g><path fill="#ffffff" d="M 217.15625 249.820312 C 220.746094 250.363281 224.105469 251.054688 227.800781 250.253906 C 231.273438 249.503906 234.34375 247.769531 237.128906 245.148438 C 241.140625 241.375 242.261719 237.144531 242.851562 232.394531 C 243.644531 226.035156 240.765625 220.050781 242.34375 213.636719 C 243.066406 210.714844 245.085938 209.378906 246.464844 206.976562 C 246.789062 206.414062 246.957031 205.714844 246.773438 205.085938 C 246.472656 204.058594 245.390625 203.34375 244.40625 203.40625 C 242.957031 203.496094 241.050781 205.480469 240.136719 206.59375 C 238.859375 208.144531 238 210.070312 237.515625 212.0625 C 236.300781 217.0625 237.53125 221.765625 237.503906 226.757812 C 237.480469 230.765625 236.429688 236.414062 233.144531 238.890625 C 234.375 237.964844 234.296875 232.117188 234.390625 230.675781 C 234.621094 227.097656 234.152344 223.417969 232.804688 220.0625 C 231.707031 217.339844 230.378906 215.308594 229.5 212.496094 C 229.027344 210.988281 228.324219 209.5625 227.417969 208.292969 C 226.164062 206.53125 225.769531 204.8125 225.753906 202.609375 C 225.730469 199.179688 224.796875 196.761719 222.859375 194.070312 C 221.328125 191.949219 222.992188 189.695312 223.203125 187.421875 C 223.597656 183.183594 221.121094 180.160156 219.785156 176.433594 C 219.097656 174.515625 218.707031 172.53125 217.882812 170.675781 C 217.464844 169.730469 216.96875 168.816406 216.347656 168.003906 C 215.902344 167.425781 215.320312 166.484375 214.582031 166.324219 C 213.347656 166.058594 212.589844 168.003906 212.316406 168.972656 C 211.886719 170.472656 211.863281 172.054688 211.667969 173.59375 C 211.613281 174.03125 211.554688 174.480469 211.378906 174.878906 C 210.929688 175.894531 209.902344 176.019531 209.003906 176.292969 C 207.746094 176.671875 206.636719 177.3125 205.558594 178.09375 C 205.132812 178.398438 204.703125 178.71875 204.203125 178.839844 C 202.109375 179.34375 198.632812 174.46875 196.703125 176.273438 C 195.710938 177.203125 197.566406 180.644531 197.988281 181.488281 C 198.453125 182.421875 198.957031 183.332031 199.46875 184.234375 C 200.011719 185.1875 200.917969 186.105469 201.15625 187.195312 C 201.441406 188.511719 200.773438 189.621094 202.195312 192.960938 C 202.761719 194.289062 203.34375 195.152344 203.488281 195.914062 C 203.707031 197.066406 203.296875 197.988281 203.238281 199.9375 C 203.144531 203.171875 203.523438 204.789062 202.765625 206.410156 C 201.683594 208.71875 201.144531 211.546875 200.332031 213.960938 C 199.050781 217.761719 198.28125 219.605469 196.890625 223.171875 C 194.070312 230.40625 194.832031 244.371094 202.28125 248.265625 C 206.214844 250.320312 211.277344 249.050781 215.519531 249.589844 C 216.070312 249.660156 216.613281 249.738281 217.15625 249.820312 " fill-opacity="1" fill-rule="nonzero"/><g clip-path="url(#d074c3ccde)"><path fill="#fc4c35" d="M 255.253906 207.089844 C 258.019531 207.089844 260.265625 204.84375 260.265625 202.078125 L 260.265625 98.78125 C 260.265625 96.015625 258.019531 93.769531 255.253906 93.769531 L 240.21875 93.769531 C 237.453125 93.769531 235.207031 96.015625 235.207031 98.78125 L 235.207031 202.078125 C 235.207031 204.84375 237.453125 207.089844 240.21875 207.089844 Z M 255.253906 207.089844 " fill-opacity="1" fill-rule="evenodd"/><path fill="#fc4c35" d="M 255.253906 207.417969 C 258.203125 207.417969 260.59375 205.027344 260.59375 202.078125 L 260.59375 98.78125 C 260.59375 95.832031 258.203125 93.441406 255.253906 93.441406 L 240.21875 93.441406 C 237.269531 93.441406 234.875 95.832031 234.875 98.78125 C 234.875 98.78125 234.875 202.078125 234.875 202.078125 C 234.875 205.027344 237.269531 207.417969 240.21875 207.417969 C 240.21875 207.417969 255.253906 207.417969 255.253906 207.417969 Z M 255.253906 206.765625 L 240.21875 206.765625 C 237.632812 206.765625 235.535156 204.664062 235.535156 202.078125 L 235.535156 98.78125 C 235.535156 96.195312 237.632812 94.09375 240.21875 94.09375 C 240.21875 94.09375 255.253906 94.09375 255.253906 94.09375 C 257.839844 94.09375 259.9375 96.195312 259.9375 98.78125 C 259.9375 98.78125 259.9375 202.078125 259.9375 202.078125 C 259.9375 204.664062 257.839844 206.765625 255.253906 206.765625 Z M 255.253906 206.765625 " fill-opacity="1" fill-rule="evenodd"/></g><g fill="#d63a25" fill-opacity="1"><g transform="translate(86.823654, 290.023385)"><g><path d="M 17.71875 -22.9375 C 15.289062 -22.9375 13.425781 -22.191406 12.125 -20.703125 C 10.832031 -19.222656 10.1875 -17.125 10.1875 -14.40625 C 10.1875 -11.65625 10.90625 -9.535156 12.34375 -8.046875 C 13.78125 -6.566406 15.71875 -5.828125 18.15625 -5.828125 C 19.445312 -5.828125 20.539062 -6 21.4375 -6.34375 C 22.34375 -6.695312 23.207031 -7.09375 24.03125 -7.53125 C 24.5625 -7.09375 24.976562 -6.5625 25.28125 -5.9375 C 25.582031 -5.320312 25.734375 -4.609375 25.734375 -3.796875 C 25.734375 -2.492188 25.015625 -1.390625 23.578125 -0.484375 C 22.140625 0.410156 19.953125 0.859375 17.015625 0.859375 C 14.898438 0.859375 12.910156 0.554688 11.046875 -0.046875 C 9.179688 -0.648438 7.550781 -1.570312 6.15625 -2.8125 C 4.769531 -4.0625 3.671875 -5.640625 2.859375 -7.546875 C 2.054688 -9.460938 1.65625 -11.75 1.65625 -14.40625 C 1.65625 -16.875 2.039062 -19.046875 2.8125 -20.921875 C 3.59375 -22.804688 4.65625 -24.394531 6 -25.6875 C 7.34375 -26.976562 8.910156 -27.957031 10.703125 -28.625 C 12.503906 -29.289062 14.429688 -29.625 16.484375 -29.625 C 19.398438 -29.625 21.65625 -29.148438 23.25 -28.203125 C 24.84375 -27.253906 25.640625 -26.035156 25.640625 -24.546875 C 25.640625 -23.722656 25.429688 -23.007812 25.015625 -22.40625 C 24.609375 -21.8125 24.132812 -21.34375 23.59375 -21 C 22.78125 -21.53125 21.90625 -21.984375 20.96875 -22.359375 C 20.039062 -22.742188 18.957031 -22.9375 17.71875 -22.9375 Z M 17.71875 -22.9375 "/></g></g></g><g fill="#d63a25" fill-opacity="1"><g transform="translate(113.877005, 290.023385)"><g><path d="M 9.1875 -27.859375 C 9.726562 -28.179688 10.539062 -28.484375 11.625 -28.765625 C 12.71875 -29.046875 13.816406 -29.1875 14.921875 -29.1875 C 16.503906 -29.1875 17.90625 -28.957031 19.125 -28.5 C 20.34375 -28.039062 21.125 -27.320312 21.46875 -26.34375 C 22.039062 -24.707031 22.65625 -22.796875 23.3125 -20.609375 C 23.976562 -18.429688 24.640625 -16.179688 25.296875 -13.859375 C 25.960938 -11.535156 26.613281 -9.242188 27.25 -6.984375 C 27.882812 -4.734375 28.4375 -2.738281 28.90625 -1 C 28.53125 -0.550781 27.960938 -0.195312 27.203125 0.0625 C 26.441406 0.332031 25.539062 0.46875 24.5 0.46875 C 23.738281 0.46875 23.097656 0.40625 22.578125 0.28125 C 22.054688 0.15625 21.628906 -0.03125 21.296875 -0.28125 C 20.960938 -0.53125 20.691406 -0.859375 20.484375 -1.265625 C 20.285156 -1.679688 20.109375 -2.160156 19.953125 -2.703125 L 19.09375 -5.96875 L 10.515625 -5.96875 C 10.265625 -5.019531 10.015625 -4.039062 9.765625 -3.03125 C 9.515625 -2.019531 9.257812 -1.039062 9 -0.09375 C 8.5625 0.0625 8.097656 0.191406 7.609375 0.296875 C 7.117188 0.410156 6.523438 0.46875 5.828125 0.46875 C 4.210938 0.46875 3.019531 0.191406 2.25 -0.359375 C 1.476562 -0.910156 1.09375 -1.675781 1.09375 -2.65625 C 1.09375 -3.09375 1.15625 -3.53125 1.28125 -3.96875 C 1.40625 -4.414062 1.546875 -4.941406 1.703125 -5.546875 C 1.921875 -6.398438 2.226562 -7.457031 2.625 -8.71875 C 3.019531 -9.976562 3.453125 -11.34375 3.921875 -12.8125 C 4.398438 -14.28125 4.90625 -15.789062 5.4375 -17.34375 C 5.976562 -18.894531 6.484375 -20.359375 6.953125 -21.734375 C 7.429688 -23.109375 7.867188 -24.332031 8.265625 -25.40625 C 8.660156 -26.476562 8.96875 -27.296875 9.1875 -27.859375 Z M 14.875 -21.75 C 14.4375 -20.425781 13.941406 -18.945312 13.390625 -17.3125 C 12.835938 -15.6875 12.335938 -14.039062 11.890625 -12.375 L 17.765625 -12.375 C 17.328125 -14.070312 16.878906 -15.734375 16.421875 -17.359375 C 15.960938 -18.992188 15.546875 -20.457031 15.171875 -21.75 Z M 14.875 -21.75 "/></g></g></g><g fill="#d63a25" fill-opacity="1"><g transform="translate(143.583576, 290.023385)"><g><path d="M 11.234375 -11.421875 C 9.835938 -11.890625 8.570312 -12.367188 7.4375 -12.859375 C 6.300781 -13.347656 5.320312 -13.941406 4.5 -14.640625 C 3.675781 -15.335938 3.035156 -16.164062 2.578125 -17.125 C 2.117188 -18.09375 1.890625 -19.269531 1.890625 -20.65625 C 1.890625 -23.34375 2.925781 -25.492188 5 -27.109375 C 7.070312 -28.722656 9.972656 -29.53125 13.703125 -29.53125 C 15.054688 -29.53125 16.316406 -29.429688 17.484375 -29.234375 C 18.648438 -29.046875 19.648438 -28.753906 20.484375 -28.359375 C 21.328125 -27.960938 21.984375 -27.457031 22.453125 -26.84375 C 22.929688 -26.226562 23.171875 -25.507812 23.171875 -24.6875 C 23.171875 -23.863281 22.976562 -23.160156 22.59375 -22.578125 C 22.21875 -21.992188 21.765625 -21.5 21.234375 -21.09375 C 20.535156 -21.53125 19.601562 -21.914062 18.4375 -22.25 C 17.269531 -22.582031 15.988281 -22.75 14.59375 -22.75 C 13.175781 -22.75 12.132812 -22.550781 11.46875 -22.15625 C 10.800781 -21.757812 10.46875 -21.257812 10.46875 -20.65625 C 10.46875 -20.1875 10.671875 -19.800781 11.078125 -19.5 C 11.492188 -19.195312 12.113281 -18.921875 12.9375 -18.671875 L 15.453125 -17.859375 C 18.421875 -16.910156 20.703125 -15.703125 22.296875 -14.234375 C 23.890625 -12.765625 24.6875 -10.769531 24.6875 -8.25 C 24.6875 -5.5625 23.628906 -3.382812 21.515625 -1.71875 C 19.398438 -0.0625 16.285156 0.765625 12.171875 0.765625 C 10.722656 0.765625 9.375 0.644531 8.125 0.40625 C 6.875 0.164062 5.78125 -0.179688 4.84375 -0.640625 C 3.914062 -1.097656 3.191406 -1.664062 2.671875 -2.34375 C 2.148438 -3.019531 1.890625 -3.800781 1.890625 -4.6875 C 1.890625 -5.601562 2.15625 -6.382812 2.6875 -7.03125 C 3.226562 -7.6875 3.816406 -8.1875 4.453125 -8.53125 C 5.335938 -7.832031 6.421875 -7.226562 7.703125 -6.71875 C 8.984375 -6.21875 10.378906 -5.96875 11.890625 -5.96875 C 13.441406 -5.96875 14.53125 -6.203125 15.15625 -6.671875 C 15.789062 -7.148438 16.109375 -7.707031 16.109375 -8.34375 C 16.109375 -8.96875 15.851562 -9.445312 15.34375 -9.78125 C 14.84375 -10.113281 14.132812 -10.4375 13.21875 -10.75 Z M 11.234375 -11.421875 "/></g></g></g><g fill="#d63a25" fill-opacity="1"><g transform="translate(169.689344, 290.023385)"><g><path d="M 9.1875 -27.859375 C 9.726562 -28.179688 10.539062 -28.484375 11.625 -28.765625 C 12.71875 -29.046875 13.816406 -29.1875 14.921875 -29.1875 C 16.503906 -29.1875 17.90625 -28.957031 19.125 -28.5 C 20.34375 -28.039062 21.125 -27.320312 21.46875 -26.34375 C 22.039062 -24.707031 22.65625 -22.796875 23.3125 -20.609375 C 23.976562 -18.429688 24.640625 -16.179688 25.296875 -13.859375 C 25.960938 -11.535156 26.613281 -9.242188 27.25 -6.984375 C 27.882812 -4.734375 28.4375 -2.738281 28.90625 -1 C 28.53125 -0.550781 27.960938 -0.195312 27.203125 0.0625 C 26.441406 0.332031 25.539062 0.46875 24.5 0.46875 C 23.738281 0.46875 23.097656 0.40625 22.578125 0.28125 C 22.054688 0.15625 21.628906 -0.03125 21.296875 -0.28125 C 20.960938 -0.53125 20.691406 -0.859375 20.484375 -1.265625 C 20.285156 -1.679688 20.109375 -2.160156 19.953125 -2.703125 L 19.09375 -5.96875 L 10.515625 -5.96875 C 10.265625 -5.019531 10.015625 -4.039062 9.765625 -3.03125 C 9.515625 -2.019531 9.257812 -1.039062 9 -0.09375 C 8.5625 0.0625 8.097656 0.191406 7.609375 0.296875 C 7.117188 0.410156 6.523438 0.46875 5.828125 0.46875 C 4.210938 0.46875 3.019531 0.191406 2.25 -0.359375 C 1.476562 -0.910156 1.09375 -1.675781 1.09375 -2.65625 C 1.09375 -3.09375 1.15625 -3.53125 1.28125 -3.96875 C 1.40625 -4.414062 1.546875 -4.941406 1.703125 -5.546875 C 1.921875 -6.398438 2.226562 -7.457031 2.625 -8.71875 C 3.019531 -9.976562 3.453125 -11.34375 3.921875 -12.8125 C 4.398438 -14.28125 4.90625 -15.789062 5.4375 -17.34375 C 5.976562 -18.894531 6.484375 -20.359375 6.953125 -21.734375 C 7.429688 -23.109375 7.867188 -24.332031 8.265625 -25.40625 C 8.660156 -26.476562 8.96875 -27.296875 9.1875 -27.859375 Z M 14.875 -21.75 C 14.4375 -20.425781 13.941406 -18.945312 13.390625 -17.3125 C 12.835938 -15.6875 12.335938 -14.039062 11.890625 -12.375 L 17.765625 -12.375 C 17.328125 -14.070312 16.878906 -15.734375 16.421875 -17.359375 C 15.960938 -18.992188 15.546875 -20.457031 15.171875 -21.75 Z M 14.875 -21.75 "/></g></g></g><g fill="#d63a25" fill-opacity="1"><g transform="translate(199.395916, 290.023385)"><g/></g></g><g fill="#4a4a4a" fill-opacity="1"><g transform="translate(208.874428, 290.023385)"><g><path d="M 13.84375 -15.40625 C 15.164062 -15.40625 16.179688 -15.710938 16.890625 -16.328125 C 17.609375 -16.941406 17.96875 -17.878906 17.96875 -19.140625 C 17.96875 -20.347656 17.59375 -21.273438 16.84375 -21.921875 C 16.101562 -22.566406 15.019531 -22.890625 13.59375 -22.890625 C 13.09375 -22.890625 12.675781 -22.878906 12.34375 -22.859375 C 12.007812 -22.847656 11.671875 -22.8125 11.328125 -22.75 L 11.328125 -15.40625 Z M 11.375 -0.1875 C 11.03125 -0.09375 10.484375 0 9.734375 0.09375 C 8.992188 0.1875 8.257812 0.234375 7.53125 0.234375 C 6.800781 0.234375 6.160156 0.175781 5.609375 0.0625 C 5.054688 -0.0390625 4.59375 -0.234375 4.21875 -0.515625 C 3.84375 -0.804688 3.554688 -1.203125 3.359375 -1.703125 C 3.171875 -2.210938 3.078125 -2.878906 3.078125 -3.703125 L 3.078125 -26.015625 C 3.078125 -26.679688 3.257812 -27.195312 3.625 -27.5625 C 3.988281 -27.925781 4.488281 -28.21875 5.125 -28.4375 C 6.195312 -28.8125 7.421875 -29.085938 8.796875 -29.265625 C 10.171875 -29.441406 11.550781 -29.53125 12.9375 -29.53125 C 17.300781 -29.53125 20.632812 -28.597656 22.9375 -26.734375 C 25.238281 -24.867188 26.390625 -22.335938 26.390625 -19.140625 C 26.390625 -17.597656 26.144531 -16.203125 25.65625 -14.953125 C 25.164062 -13.703125 24.4375 -12.625 23.46875 -11.71875 C 22.507812 -10.820312 21.296875 -10.128906 19.828125 -9.640625 C 18.359375 -9.148438 16.660156 -8.90625 14.734375 -8.90625 L 11.375 -8.90625 Z M 11.375 -0.1875 "/></g></g></g><g fill="#4a4a4a" fill-opacity="1"><g transform="translate(236.401563, 290.023385)"><g><path d="M 3.078125 -24.3125 C 3.078125 -25.664062 3.472656 -26.738281 4.265625 -27.53125 C 5.054688 -28.320312 6.128906 -28.71875 7.484375 -28.71875 L 23.125 -28.71875 C 23.34375 -28.375 23.539062 -27.914062 23.71875 -27.34375 C 23.894531 -26.769531 23.984375 -26.171875 23.984375 -25.546875 C 23.984375 -24.347656 23.722656 -23.492188 23.203125 -22.984375 C 22.679688 -22.472656 21.992188 -22.21875 21.140625 -22.21875 L 11.140625 -22.21875 L 11.140625 -17.8125 L 21.796875 -17.8125 C 22.015625 -17.46875 22.210938 -17.019531 22.390625 -16.46875 C 22.566406 -15.914062 22.65625 -15.320312 22.65625 -14.6875 C 22.65625 -13.488281 22.398438 -12.632812 21.890625 -12.125 C 21.390625 -11.625 20.710938 -11.375 19.859375 -11.375 L 11.140625 -11.375 L 11.140625 -6.390625 L 23.3125 -6.390625 C 23.53125 -6.046875 23.726562 -5.585938 23.90625 -5.015625 C 24.082031 -4.453125 24.171875 -3.851562 24.171875 -3.21875 C 24.171875 -2.019531 23.910156 -1.160156 23.390625 -0.640625 C 22.867188 -0.117188 22.179688 0.140625 21.328125 0.140625 L 7.484375 0.140625 C 6.128906 0.140625 5.054688 -0.253906 4.265625 -1.046875 C 3.472656 -1.835938 3.078125 -2.910156 3.078125 -4.265625 Z M 3.078125 -24.3125 "/></g></g></g><g fill="#4a4a4a" fill-opacity="1"><g transform="translate(262.365196, 290.023385)"><g><path d="M 1.75 -22.078125 C 1.53125 -22.429688 1.328125 -22.90625 1.140625 -23.5 C 0.953125 -24.101562 0.859375 -24.738281 0.859375 -25.40625 C 0.859375 -26.632812 1.132812 -27.515625 1.6875 -28.046875 C 2.238281 -28.585938 2.957031 -28.859375 3.84375 -28.859375 L 24.5 -28.859375 C 24.71875 -28.515625 24.921875 -28.039062 25.109375 -27.4375 C 25.304688 -26.832031 25.40625 -26.203125 25.40625 -25.546875 C 25.40625 -24.316406 25.128906 -23.429688 24.578125 -22.890625 C 24.023438 -22.347656 23.304688 -22.078125 22.421875 -22.078125 L 17.15625 -22.078125 L 17.15625 -0.1875 C 16.8125 -0.09375 16.265625 0 15.515625 0.09375 C 14.773438 0.1875 14.039062 0.234375 13.3125 0.234375 C 12.59375 0.234375 11.953125 0.175781 11.390625 0.0625 C 10.835938 -0.0390625 10.375 -0.234375 10 -0.515625 C 9.625 -0.804688 9.335938 -1.203125 9.140625 -1.703125 C 8.953125 -2.210938 8.859375 -2.878906 8.859375 -3.703125 L 8.859375 -22.078125 Z M 1.75 -22.078125 "/></g></g></g></svg>